<?xml version="1.0" encoding="UTF-8" standalone="no"?>
<!DOCTYPE svg PUBLIC "-//W3C//DTD SVG 1.1//EN"
 "http://www.w3.org/Graphics/SVG/1.1/DTD/svg11.dtd">
<!-- Generated by graphviz version 2.38.0 (20140413.2041)
 -->
<!-- Title: %3 Pages: 1 -->
<svg width="220pt" height="254pt"
 viewBox="0.00 0.00 219.96 253.95" xmlns="http://www.w3.org/2000/svg" xmlns:xlink="http://www.w3.org/1999/xlink">
<g id="graph0" class="graph" transform="scale(1 1) rotate(0) translate(4 249.948)">
<title>%3</title>
<polygon fill="white" stroke="none" points="-4,4 -4,-249.948 215.962,-249.948 215.962,4 -4,4"/>
<!-- A -->
<g id="node1" class="node"><title>A</title>
<polygon fill="lightgray" stroke="black" points="68.7132,-230.2 45.7132,-230.2 45.7132,-212.2 68.7132,-212.2 68.7132,-230.2"/>
<text text-anchor="middle" x="57.2132" y="-219" font-family="Times New Roman,serif" font-size="9.00">A</text>
</g>
<!-- 258 -->
<g id="node4" class="node"><title>258</title>
<ellipse fill="white" stroke="black" cx="21.2132" cy="-135.702" rx="21.4286" ry="21.4286"/>
<text text-anchor="middle" x="21.2132" y="-133.502" font-family="Times New Roman,serif" font-size="9.00">258</text>
</g>
<!-- A&#45;&gt;258 -->
<g id="edge2" class="edge"><title>A&#45;&gt;258</title>
<path fill="none" stroke="green" stroke-width="0.525518" d="M53.7614,-212.193C49.0832,-201.343 40.4889,-181.41 33.3061,-164.75"/>
<polygon fill="green" stroke="green" stroke-width="0.525518" points="36.4537,-163.21 29.2804,-155.413 30.0256,-165.981 36.4537,-163.21"/>
</g>
<!-- 1240 -->
<g id="node6" class="node"><title>1240</title>
<ellipse fill="white" stroke="black" cx="85.2132" cy="-135.702" rx="25" ry="25"/>
<text text-anchor="middle" x="85.2132" y="-133.502" font-family="Times New Roman,serif" font-size="9.00">1240</text>
</g>
<!-- A&#45;&gt;1240 -->
<g id="edge9" class="edge"><title>A&#45;&gt;1240</title>
<path fill="none" stroke="green" stroke-width="0.477609" d="M59.898,-212.193C63.1991,-202.349 69.0072,-185.029 74.228,-169.46"/>
<polygon fill="green" stroke="green" stroke-width="0.477609" points="77.6808,-170.172 77.5418,-159.578 71.044,-167.947 77.6808,-170.172"/>
</g>
<!-- B -->
<g id="node2" class="node"><title>B</title>
<polygon fill="lightgray" stroke="black" points="120.713,-230.2 97.7132,-230.2 97.7132,-212.2 120.713,-212.2 120.713,-230.2"/>
<text text-anchor="middle" x="109.213" y="-219" font-family="Times New Roman,serif" font-size="9.00">B</text>
</g>
<!-- A XOR B -->
<g id="node3" class="node"><title>A XOR B</title>
<ellipse fill="lightblue" stroke="black" cx="85.2132" cy="-37.4767" rx="37.4533" ry="37.4533"/>
<text text-anchor="middle" x="85.2132" y="-35.2767" font-family="Times New Roman,serif" font-size="9.00">A XOR B</text>
</g>
<!-- B&#45;&gt;A XOR B -->
<g id="edge1" class="edge"><title>B&#45;&gt;A XOR B</title>
<path fill="none" stroke="red" stroke-width="0.516071" d="M111.629,-212.141C116.735,-193.898 127.501,-148.132 119.213,-110.953 116.853,-100.365 112.771,-89.4953 108.237,-79.5007"/>
<polygon fill="red" stroke="red" stroke-width="0.516071" points="111.27,-77.7303 103.793,-70.224 104.957,-80.7547 111.27,-77.7303"/>
</g>
<!-- B&#45;&gt;258 -->
<g id="edge4" class="edge"><title>B&#45;&gt;258</title>
<path fill="none" stroke="green" stroke-width="0.451469" d="M100.775,-212.193C87.7514,-199.836 62.3112,-175.697 43.6922,-158.031"/>
<polygon fill="green" stroke="green" stroke-width="0.451469" points="45.8497,-155.253 36.1864,-150.909 41.0315,-160.331 45.8497,-155.253"/>
</g>
<!-- 589 -->
<g id="node5" class="node"><title>589</title>
<ellipse fill="white" stroke="black" cx="187.213" cy="-135.702" rx="21.4286" ry="21.4286"/>
<text text-anchor="middle" x="187.213" y="-133.502" font-family="Times New Roman,serif" font-size="9.00">589</text>
</g>
<!-- B&#45;&gt;589 -->
<g id="edge5" class="edge"><title>B&#45;&gt;589</title>
<path fill="none" stroke="green" stroke-width="0.371597" d="M116.692,-212.193C127.935,-200.159 149.615,-176.95 165.984,-159.428"/>
<polygon fill="green" stroke="green" stroke-width="0.371597" points="168.805,-161.535 173.074,-151.838 163.69,-156.756 168.805,-161.535"/>
</g>
<!-- B&#45;&gt;1240 -->
<g id="edge6" class="edge"><title>B&#45;&gt;1240</title>
<path fill="none" stroke="red" stroke-width="0.415931" d="M106.912,-212.193C104.082,-202.349 99.1041,-185.029 94.6291,-169.46"/>
<polygon fill="red" stroke="red" stroke-width="0.415931" points="97.915,-168.222 91.7887,-159.578 91.1874,-170.156 97.915,-168.222"/>
</g>
<!-- 258&#45;&gt;A XOR B -->
<g id="edge3" class="edge"><title>258&#45;&gt;A XOR B</title>
<path fill="none" stroke="green" stroke-width="1.12221" d="M32.6551,-117.499C40.0393,-106.397 49.9561,-91.4865 59.1856,-77.6097"/>
<polygon fill="green" stroke="green" stroke-width="1.12221" points="62.191,-79.411 64.8148,-69.1462 56.3624,-75.5344 62.191,-79.411"/>
</g>
<!-- 1240&#45;&gt;A XOR B -->
<g id="edge7" class="edge"><title>1240&#45;&gt;A XOR B</title>
<path fill="none" stroke="red" stroke-width="0.456387" d="M85.2132,-110.916C85.2132,-103.071 85.2132,-94.0558 85.2132,-85.1086"/>
<polygon fill="red" stroke="red" stroke-width="0.456387" points="88.7133,-85.1019 85.2132,-75.102 81.7133,-85.102 88.7133,-85.1019"/>
</g>
<!-- 1311 -->
<g id="node7" class="node"><title>1311</title>
<ellipse fill="white" stroke="black" cx="187.213" cy="-221.2" rx="25" ry="25"/>
<text text-anchor="middle" x="187.213" y="-219" font-family="Times New Roman,serif" font-size="9.00">1311</text>
</g>
<!-- 1311&#45;&gt;589 -->
<g id="edge8" class="edge"><title>1311&#45;&gt;589</title>
<path fill="none" stroke="green" stroke-width="0.650995" d="M187.213,-196.049C187.213,-187.09 187.213,-176.808 187.213,-167.347"/>
<polygon fill="green" stroke="green" stroke-width="0.650995" points="190.713,-167.128 187.213,-157.128 183.713,-167.128 190.713,-167.128"/>
</g>
</g>
</svg>
